<svg width="28" height="28" viewBox="0 0 28 28" fill="none" xmlns="http://www.w3.org/2000/svg">
<path d="M6.46967 13.4697C6.17678 13.7626 6.17678 14.2374 6.46967 14.5303L11.2426 19.3033C11.5355 19.5962 12.0104 19.5962 12.3033 19.3033C12.5962 19.0104 12.5962 18.5355 12.3033 18.2426L8.06066 14L12.3033 9.75736C12.5962 9.46447 12.5962 8.98959 12.3033 8.6967C12.0104 8.40381 11.5355 8.40381 11.2426 8.6967L6.46967 13.4697ZM22 14.75C22.4142 14.75 22.75 14.4142 22.75 14C22.75 13.5858 22.4142 13.25 22 13.25V14V14.75ZM7 14V14.75H22V14V13.25H7V14Z" fill="white"/>
</svg>
