<svg width="31" height="32" viewBox="0 0 31 32" fill="none" xmlns="http://www.w3.org/2000/svg">
<g clip-path="url(#clip0_3476_23024)">
<path d="M14.6161 0.802979C14.9238 0.355235 15.5849 0.355235 15.8925 0.802979L17.3281 2.89282C17.7541 3.51261 18.5769 3.71534 19.2421 3.3645L21.4843 2.18091C21.9648 1.92741 22.5499 2.23524 22.6142 2.77466L22.915 5.29126C23.004 6.03832 23.6382 6.60048 24.3906 6.59888L26.9257 6.59399C27.4689 6.59282 27.844 7.1363 27.6503 7.6438L26.747 10.0129C26.4788 10.7158 26.7794 11.5076 27.4462 11.8557L29.6933 13.0295C30.1747 13.281 30.254 13.9368 29.8466 14.2961L27.9462 15.9729C27.382 16.4706 27.2792 17.3127 27.7079 17.9309L29.1533 20.0139C29.4626 20.4603 29.2278 21.0784 28.7001 21.2073L26.2372 21.8088C25.5066 21.9873 25.0251 22.6844 25.1171 23.4309L25.4286 25.9475C25.4952 26.4866 24.9997 26.9243 24.4726 26.7932L22.0126 26.1819C21.2826 26.0004 20.5328 26.394 20.2675 27.0979L19.373 29.47C19.1815 29.9783 18.5396 30.1367 18.1337 29.7756L16.2402 28.0901C15.6782 27.5901 14.8305 27.5902 14.2685 28.0901L12.374 29.7756C11.9681 30.1365 11.3272 29.9782 11.1357 29.47L10.2411 27.0979C9.9759 26.394 9.22599 26.0005 8.49603 26.1819L6.0351 26.7932C5.50803 26.9242 5.0135 26.4865 5.08002 25.9475L5.39154 23.4309C5.48357 22.6845 5.00194 21.9874 4.27142 21.8088L1.80853 21.2073C1.28083 21.0784 1.04594 20.4603 1.35541 20.0139L2.80072 17.9309C3.22943 17.3127 3.12666 16.4706 2.56244 15.9729L0.661072 14.2961C0.254006 13.9367 0.333925 13.2809 0.815369 13.0295L3.06244 11.8557C3.72925 11.5076 4.02976 10.7157 3.76166 10.0129L2.85736 7.6438C2.66391 7.13637 3.03982 6.59282 3.58295 6.59399L6.1181 6.59888C6.87034 6.60036 7.50463 6.03823 7.59369 5.29126L7.89349 2.77466C7.95778 2.23543 8.54301 1.92791 9.02338 2.18091L11.2665 3.3645C11.9318 3.71522 12.7546 3.51264 13.1806 2.89282L14.6161 0.802979Z" fill="#148E87" stroke="#167772" stroke-width="0.708768"/>
<path d="M7.02128 15.2611H9.54942V16.2393H7.02128V15.2611ZM7.11157 18.158H5.89264V12.891H9.87297V13.8691H7.11157V18.158ZM10.6982 18.158V12.891H12.978C13.4495 12.891 13.8558 12.9687 14.1969 13.1242C14.538 13.2747 14.8014 13.4929 14.987 13.7788C15.1726 14.0648 15.2654 14.4059 15.2654 14.8021C15.2654 15.1934 15.1726 15.532 14.987 15.8179C14.8014 16.0988 14.538 16.3145 14.1969 16.465C13.8558 16.6155 13.4495 16.6907 12.978 16.6907H11.3753L11.9171 16.1565V18.158H10.6982ZM14.0465 18.158L12.7297 16.2468H14.0314L15.3632 18.158H14.0465ZM11.9171 16.2919L11.3753 15.7201H12.9103C13.2865 15.7201 13.5674 15.6398 13.753 15.4793C13.9386 15.3138 14.0314 15.0881 14.0314 14.8021C14.0314 14.5112 13.9386 14.2855 13.753 14.125C13.5674 13.9644 13.2865 13.8842 12.9103 13.8842H11.3753L11.9171 13.3048V16.2919ZM17.3522 15.0128H19.8879V15.9609H17.3522V15.0128ZM17.4425 17.1798H20.3093V18.158H16.2311V12.891H20.2115V13.8691H17.4425V17.1798ZM22.4002 15.0128H24.9359V15.9609H22.4002V15.0128ZM22.4905 17.1798H25.3573V18.158H21.2791V12.891H25.2595V13.8691H22.4905V17.1798Z" fill="white"/>
</g>
<defs>
<clipPath id="clip0_3476_23024">
<rect width="30.477" height="31.1858" fill="white"/>
</clipPath>
</defs>
</svg>
