<svg width="55" height="55" viewBox="0 0 55 55" fill="none" xmlns="http://www.w3.org/2000/svg">
<g clip-path="url(#clip0_3476_23005)">
<rect width="55" height="55" rx="8.96739" fill="url(#paint0_linear_3476_23005)"/>
<g clip-path="url(#clip1_3476_23005)">
<path d="M17.8498 18.4663L14.4462 18.7293C13.4992 18.8025 12.6557 19.2988 12.1319 20.0911L8.20669 26.0278C7.80946 26.6285 7.74631 27.3804 8.03765 28.0391C8.32907 28.6977 8.92794 29.1567 9.63961 29.267L12.756 29.7496C13.485 25.8809 15.2301 22.0217 17.8498 18.4663Z" fill="white"/>
<path d="M25.25 42.2425L25.7327 45.3589C25.843 46.0705 26.302 46.6694 26.9605 46.9607C27.2345 47.082 27.5246 47.1418 27.8131 47.1418C28.2185 47.1418 28.621 47.0237 28.9719 46.7917L34.9088 42.8665C35.701 42.3427 36.1974 41.4992 36.2704 40.5522L36.5334 37.1487C32.9779 39.7685 29.1188 41.5136 25.25 42.2425Z" fill="white"/>
<path d="M24.0777 40.0836C24.1859 40.0836 24.2947 40.0747 24.4033 40.0566C26.0241 39.7856 27.5863 39.3291 29.0766 38.7315L16.2681 25.9231C15.6706 27.4133 15.214 28.9755 14.943 30.5964C14.8362 31.2353 15.0505 31.8862 15.5085 32.3443L22.6554 39.4911C23.0357 39.8713 23.5489 40.0836 24.0777 40.0836Z" fill="white"/>
<path d="M44.0095 25.2742C47.1438 19.2146 47.2599 12.8111 47.0961 9.8079C47.04 8.77889 46.2196 7.9585 45.1905 7.90241C44.7015 7.8757 44.122 7.85645 43.4688 7.85645C40.1106 7.85645 34.7971 8.36508 29.7242 10.989C25.6927 13.0743 20.4062 17.6658 17.2874 23.7C17.3242 23.7287 17.3602 23.7593 17.3941 23.7932L31.2054 37.6045C31.2393 37.6384 31.2697 37.6743 31.2985 37.7111C37.3327 34.5922 41.9242 29.3057 44.0095 25.2742ZM30.6985 16.1616C32.9421 13.918 36.593 13.9178 38.8368 16.1616C39.9237 17.2485 40.5223 18.6937 40.5223 20.2308C40.5223 21.7679 39.9237 23.2131 38.8368 24.3C37.7151 25.4217 36.2411 25.9827 34.7677 25.9828C33.2938 25.9829 31.8205 25.422 30.6985 24.3C29.6115 23.2131 29.0129 21.7679 29.0129 20.2308C29.0129 18.6937 29.6115 17.2485 30.6985 16.1616Z" fill="white"/>
<path d="M32.3271 22.6725C33.6733 24.0187 35.8639 24.0188 37.2102 22.6725C37.8623 22.0203 38.2215 21.1532 38.2215 20.2309C38.2215 19.3087 37.8623 18.4416 37.2102 17.7895C36.5371 17.1163 35.6528 16.7798 34.7686 16.7798C33.8845 16.7798 33.0002 17.1163 32.3271 17.7895C31.675 18.4416 31.3158 19.3087 31.3158 20.2309C31.3158 21.1532 31.6749 22.0204 32.3271 22.6725Z" fill="white"/>
<path opacity="0.6" d="M9.03087 40.2317C9.32544 40.2317 9.62 40.1194 9.84467 39.8946L13.6024 36.1369C14.0518 35.6874 14.0518 34.9587 13.6024 34.5092C13.153 34.0597 12.4242 34.0597 11.9747 34.5092L8.217 38.2669C7.76751 38.7164 7.76751 39.4451 8.217 39.8946C8.44174 40.1193 8.7363 40.2317 9.03087 40.2317Z" fill="white"/>
<path d="M17.0459 37.9531C16.5965 37.5036 15.8677 37.5036 15.4182 37.9531L8.19374 45.1776C7.74426 45.6271 7.74426 46.3558 8.19374 46.8053C8.41848 47.03 8.71305 47.1423 9.00762 47.1423C9.30218 47.1423 9.59675 47.03 9.82141 46.8052L17.0458 39.5807C17.4954 39.1313 17.4954 38.4026 17.0459 37.9531Z" fill="white"/>
<path opacity="0.4" d="M18.8622 41.396L15.1045 45.1536C14.6551 45.6031 14.6551 46.3318 15.1045 46.7813C15.3293 47.0061 15.6238 47.1185 15.9183 47.1185C16.2128 47.1185 16.5075 47.0061 16.7321 46.7813L20.4898 43.0236C20.9393 42.5741 20.9393 41.8454 20.4898 41.396C20.0404 40.9465 19.3116 40.9465 18.8622 41.396Z" fill="white"/>
</g>
</g>
<defs>
<linearGradient id="paint0_linear_3476_23005" x1="17.325" y1="14.3005" x2="56.925" y2="51.9755" gradientUnits="userSpaceOnUse">
<stop stop-color="#7FB4E9"/>
<stop offset="1" stop-color="#3346A9"/>
</linearGradient>
<clipPath id="clip0_3476_23005">
<rect width="55" height="55" fill="white"/>
</clipPath>
<clipPath id="clip1_3476_23005">
<rect width="39.2857" height="39.2857" fill="white" transform="translate(7.85703 7.85693)"/>
</clipPath>
</defs>
</svg>
