<svg width="56" height="56" viewBox="0 0 56 56" fill="none" xmlns="http://www.w3.org/2000/svg">
<rect width="55" height="55" rx="8.96739" fill="url(#paint0_linear_3476_23019)"/>
<path d="M20.5914 50.3188C19.4346 50.3188 18.3683 50.1382 17.3926 49.7769C16.4309 49.4018 15.5876 48.8738 14.8628 48.193C14.1519 47.5122 13.5944 46.7132 13.1902 45.7962C12.7999 44.8792 12.6048 43.8719 12.6048 42.7743C12.6048 41.6766 12.7999 40.6693 13.1902 39.7523C13.5944 38.8353 14.1589 38.0363 14.8837 37.3555C15.6085 36.6747 16.4587 36.1537 17.4344 35.7924C18.4101 35.4173 19.4833 35.2297 20.6542 35.2297C21.9504 35.2297 23.1143 35.4451 24.1457 35.8758C25.1911 36.3065 26.0692 36.9318 26.78 37.7515L24.6057 39.7523C24.076 39.1965 23.4976 38.7866 22.8703 38.5226C22.2431 38.2448 21.5601 38.1058 20.8214 38.1058C20.1106 38.1058 19.4624 38.217 18.877 38.4393C18.2916 38.6616 17.7829 38.9811 17.3508 39.398C16.9326 39.8148 16.6051 40.308 16.3681 40.8777C16.1451 41.4474 16.0336 42.0795 16.0336 42.7743C16.0336 43.4551 16.1451 44.0803 16.3681 44.65C16.6051 45.2196 16.9326 45.7198 17.3508 46.1505C17.7829 46.5674 18.2846 46.8869 18.8561 47.1092C19.4415 47.3315 20.0827 47.4427 20.7796 47.4427C21.4486 47.4427 22.0968 47.3385 22.724 47.1301C23.3651 46.9078 23.9854 46.5396 24.5847 46.0255L26.5082 48.4639C25.7137 49.0614 24.7868 49.5199 23.7275 49.8394C22.6822 50.159 21.6368 50.3188 20.5914 50.3188ZM23.4139 48.0262V42.545H26.5082V48.4639L23.4139 48.0262Z" fill="white"/>
<path d="M36.073 50.2354C35.0834 50.2354 34.2332 50.027 33.5223 49.6102C32.8115 49.1933 32.2679 48.5612 31.8916 47.7136C31.5152 46.8522 31.3271 45.7684 31.3271 44.4624C31.3271 43.1424 31.5222 42.0587 31.9125 41.2112C32.3167 40.3636 32.8742 39.7314 33.5851 39.3146C34.2959 38.8978 35.1252 38.6894 36.073 38.6894C37.1323 38.6894 38.0801 38.9256 38.9164 39.398C39.7667 39.8704 40.4357 40.5373 40.9236 41.3987C41.4253 42.2602 41.6762 43.2814 41.6762 44.4624C41.6762 45.6295 41.4253 46.6438 40.9236 47.5052C40.4357 48.3666 39.7667 49.0405 38.9164 49.5268C38.0801 49.9992 37.1323 50.2354 36.073 50.2354ZM29.4245 50.0687V34.6045H32.686V41.1278L32.477 44.4416L32.5397 47.7761V50.0687H29.4245ZM35.5085 47.5677C36.0521 47.5677 36.533 47.4427 36.9511 47.1926C37.3832 46.9425 37.7247 46.5882 37.9756 46.1297C38.2404 45.6573 38.3729 45.1015 38.3729 44.4624C38.3729 43.8094 38.2404 43.2536 37.9756 42.7951C37.7247 42.3366 37.3832 41.9823 36.9511 41.7322C36.533 41.4821 36.0521 41.357 35.5085 41.357C34.9649 41.357 34.4771 41.4821 34.045 41.7322C33.6129 41.9823 33.2714 42.3366 33.0206 42.7951C32.7697 43.2536 32.6442 43.8094 32.6442 44.4624C32.6442 45.1015 32.7697 45.6573 33.0206 46.1297C33.2714 46.5882 33.6129 46.9425 34.045 47.1926C34.4771 47.4427 34.9649 47.5677 35.5085 47.5677Z" fill="white"/>
<path d="M25.7857 31.4618C25.5612 31.4618 25.3591 31.3832 25.1795 31.2261C25.0224 31.069 24.9438 30.8669 24.9438 30.62V14.5914L20.3305 18.1271C20.1285 18.2843 19.9152 18.3404 19.6908 18.2955C19.4887 18.2506 19.3091 18.1271 19.152 17.9251L17.1652 15.3322C17.0305 15.1302 16.9744 14.9169 16.9969 14.6924C17.0418 14.4455 17.1765 14.2547 17.401 14.12L25.1459 8.1261C25.2805 8.0363 25.404 7.98018 25.5163 7.95773C25.651 7.91283 25.7969 7.89038 25.954 7.89038H30.1632C30.3877 7.89038 30.5785 7.96895 30.7357 8.1261C30.9152 8.28324 31.005 8.48528 31.005 8.73222V30.62C31.005 30.8669 30.9152 31.069 30.7357 31.2261C30.5785 31.3832 30.3877 31.4618 30.1632 31.4618H25.7857Z" fill="white"/>
<defs>
<linearGradient id="paint0_linear_3476_23019" x1="17.325" y1="14.3005" x2="56.925" y2="51.9755" gradientUnits="userSpaceOnUse">
<stop stop-color="#7FB4E9"/>
<stop offset="1" stop-color="#3346A9"/>
</linearGradient>
</defs>
</svg>
