<svg width="55" height="55" viewBox="0 0 55 55" fill="none" xmlns="http://www.w3.org/2000/svg">
<g clip-path="url(#clip0_3476_23031)">
<rect width="55" height="55" rx="8.96739" fill="url(#paint0_linear_3476_23031)"/>
<g clip-path="url(#clip1_3476_23031)">
<path opacity="0.6" d="M46.7724 34.468C46.7724 29.5929 43.9756 25.2421 39.7869 23.1257C39.6569 32.473 32.0786 40.0513 22.7313 40.1814C24.8477 44.37 29.1985 47.1668 34.0736 47.1668C36.3593 47.1668 38.582 46.558 40.5351 45.4014L46.7169 47.1113L45.007 40.9295C46.1636 38.9765 46.7724 36.7537 46.7724 34.468Z" fill="white"/>
<path d="M37.4877 22.8816C37.4877 14.61 30.7586 7.88086 22.487 7.88086C14.2155 7.88086 7.48633 14.61 7.48633 22.8816C7.48633 25.5773 8.20387 28.202 9.56643 30.5063L7.54148 37.8268L14.8623 35.8022C17.1666 37.1647 19.7913 37.8823 22.487 37.8823C30.7586 37.8823 37.4877 31.1531 37.4877 22.8816ZM20.1851 19.3903H17.8832C17.8832 16.8517 19.9483 14.7866 22.487 14.7866C25.0257 14.7866 27.0908 16.8517 27.0908 19.3903C27.0908 20.6789 26.5453 21.9173 25.5937 22.7877L23.638 24.5777V26.3728H21.3361V23.564L24.0396 21.0895C24.5228 20.6474 24.7889 20.044 24.7889 19.3903C24.7889 18.121 23.7564 17.0884 22.487 17.0884C21.2177 17.0884 20.1851 18.121 20.1851 19.3903ZM21.3361 28.6747H23.638V30.9766H21.3361V28.6747Z" fill="white"/>
</g>
</g>
<defs>
<linearGradient id="paint0_linear_3476_23031" x1="17.325" y1="14.3005" x2="56.925" y2="51.9755" gradientUnits="userSpaceOnUse">
<stop stop-color="#7FB4E9"/>
<stop offset="1" stop-color="#3346A9"/>
</linearGradient>
<clipPath id="clip0_3476_23031">
<rect width="55" height="55" fill="white"/>
</clipPath>
<clipPath id="clip1_3476_23031">
<rect width="39.2857" height="39.2857" fill="white" transform="translate(7.4873 7.88037)"/>
</clipPath>
</defs>
</svg>
