<svg width="81" height="70" viewBox="0 0 81 70" fill="none" xmlns="http://www.w3.org/2000/svg">
<g clip-path="url(#clip0_3476_22963)">
<path opacity="0.8" fill-rule="evenodd" clip-rule="evenodd" d="M77.5931 28.6201C79.3552 30.4132 80.3426 32.8266 80.3426 35.3406C80.3426 37.8546 79.3552 40.268 77.5931 42.0611L53.0641 66.8971C52.1984 67.779 51.1655 68.4797 50.0259 68.9579C48.8864 69.4362 47.6629 69.6825 46.4271 69.6825C45.1912 69.6825 43.9678 69.4362 42.8282 68.9579C41.6886 68.4797 40.6558 67.779 39.79 66.8971C38.0279 65.104 37.0405 62.6906 37.0405 60.1766C37.0405 57.6626 38.0279 55.2492 39.79 53.4561L64.3191 28.6201C65.1848 27.7381 66.2176 27.0375 67.3572 26.5593C68.4967 26.081 69.7202 25.8347 70.9561 25.8347C72.1919 25.8347 73.4154 26.081 74.5549 26.5593C75.6945 27.0375 76.7274 27.7381 77.5931 28.6201Z" fill="#148E87" fill-opacity="0.1"/>
<path opacity="0.8" fill-rule="evenodd" clip-rule="evenodd" d="M42.0982 3.78491C43.8603 5.57781 44.8477 7.99108 44.8477 10.5049C44.8477 13.0188 43.8603 15.432 42.0982 17.2249L16.9922 42.6449C16.1265 43.5269 15.0937 44.2275 13.9541 44.7057C12.8145 45.184 11.591 45.4303 10.3552 45.4303C9.11931 45.4303 7.89586 45.184 6.75629 44.7057C5.61672 44.2275 4.58391 43.5269 3.7182 42.6449C1.95613 40.852 0.96875 38.4387 0.96875 35.9249C0.96875 33.4111 1.95613 30.9978 3.7182 29.2049L28.8242 3.78491C29.6899 2.90293 30.7227 2.20234 31.8623 1.72409C33.0019 1.24584 34.2253 0.999512 35.4612 0.999512C36.697 0.999512 37.9205 1.24584 39.0601 1.72409C40.1996 2.20234 41.2325 2.90293 42.0982 3.78491Z" fill="#148E87" fill-opacity="0.1"/>
<path opacity="0.8" fill-rule="evenodd" clip-rule="evenodd" d="M64.6072 11.3811C66.3693 13.1742 67.3568 15.5876 67.3568 18.1016C67.3568 20.6156 66.3693 23.029 64.6072 24.8221L25.6502 64.2691C24.7841 65.1505 23.751 65.8506 22.6114 66.3284C21.4718 66.8063 20.2484 67.0524 19.0127 67.0524C17.7769 67.0524 16.5535 66.8063 15.4139 66.3284C14.2743 65.8506 13.2413 65.1505 12.3752 64.2691C10.6135 62.4758 9.62646 60.0625 9.62646 57.5486C9.62646 55.0348 10.6135 52.6214 12.3752 50.8281L51.3312 11.3811C52.1969 10.4988 53.2299 9.79798 54.3696 9.31955C55.5094 8.84112 56.7331 8.59473 57.9692 8.59473C59.2053 8.59473 60.429 8.84112 61.5687 9.31955C62.7085 9.79798 63.7414 10.4988 64.6072 11.3811Z" fill="#148E87" fill-opacity="0.1"/>
<g clip-path="url(#clip1_3476_22963)">
<path d="M36.1785 51.3912C47.5989 51.3912 56.857 42.1331 56.857 30.7127C56.857 19.2923 47.5989 10.0342 36.1785 10.0342C24.7581 10.0342 15.5 19.2923 15.5 30.7127C15.5 42.1331 24.7581 51.3912 36.1785 51.3912Z" fill="#257671"/>
<path d="M56.8575 30.7127C56.8575 19.2923 47.5994 10.0342 36.179 10.0342C35.714 10.0342 35.253 10.0511 34.7957 10.0813C45.0894 10.7614 53.324 18.9729 54.0393 29.2568C54.0879 29.9556 53.5152 30.5334 52.8149 30.5185C52.7076 30.5162 52.6 30.515 52.492 30.515C43.9635 30.515 37.0498 37.4288 37.0498 45.9573C37.0498 46.7582 37.111 47.5447 37.2288 48.3126C37.4616 49.8304 36.359 51.2385 34.827 51.3421C34.8166 51.3428 34.8061 51.3435 34.7957 51.3441C35.253 51.3743 35.714 51.3913 36.179 51.3913C47.6668 51.3912 56.8575 42.0568 56.8575 30.7127Z" fill="#1A6C67"/>
<path d="M36.1781 46.5857C44.9448 46.5857 52.0516 39.479 52.0516 30.7123C52.0516 21.9456 44.9448 14.8389 36.1781 14.8389C27.4115 14.8389 20.3047 21.9456 20.3047 30.7123C20.3047 39.479 27.4115 46.5857 36.1781 46.5857Z" fill="#F4FBFF"/>
<path d="M52.0514 30.7123C52.0514 21.9457 44.9447 14.8389 36.178 14.8389C35.7479 14.8389 35.322 14.8565 34.9006 14.8901C43.1003 15.5432 49.5445 22.4267 49.4964 30.8054C49.4961 30.8058 49.4959 30.8061 49.4956 30.8064C42.7976 32.1232 37.8021 37.7075 37.1269 44.3711C37.0108 45.5166 36.1137 46.4327 34.9664 46.529C34.9445 46.5309 34.9226 46.5326 34.9006 46.5344C44.1437 47.2709 52.0514 39.9888 52.0514 30.7123Z" fill="#DAF1F4"/>
<path d="M36.1781 19.7489C35.7613 19.7489 35.4236 19.4111 35.4236 18.9944V17.9278C35.4236 17.511 35.7614 17.1733 36.1781 17.1733C36.5949 17.1733 36.9326 17.5111 36.9326 17.9278V18.9944C36.9326 19.4111 36.5949 19.7489 36.1781 19.7489Z" fill="#257671"/>
<path d="M44.464 23.1814C44.2709 23.1814 44.0778 23.1077 43.9304 22.9603C43.6358 22.6657 43.6358 22.188 43.9305 21.8932L44.6847 21.1391C44.9794 20.8445 45.4571 20.8446 45.7518 21.1392C46.0464 21.4339 46.0464 21.9116 45.7517 22.2063L44.9975 22.9604C44.8503 23.1077 44.6571 23.1814 44.464 23.1814Z" fill="#257671"/>
<path d="M48.9605 31.4658H47.8939C47.4771 31.4658 47.1394 31.128 47.1394 30.7113C47.1394 30.2946 47.4772 29.9568 47.8939 29.9568H48.9606C49.3774 29.9568 49.7151 30.2946 49.7151 30.7113C49.7151 31.128 49.3773 31.4658 48.9605 31.4658Z" fill="#257671"/>
<path d="M36.4876 44.5603C36.0708 44.5603 35.7332 44.2225 35.7332 43.8058V42.7391C35.7332 42.3223 36.0709 41.9846 36.4876 41.9846C36.9044 41.9846 37.2421 42.3224 37.2421 42.7391V43.8058C37.2421 44.2226 36.9044 44.5603 36.4876 44.5603Z" fill="#257671"/>
<path d="M27.1398 40.5062C26.9468 40.5062 26.7536 40.4325 26.6062 40.2852C26.3116 39.9905 26.3116 39.5128 26.6062 39.218L27.3604 38.4638C27.6552 38.1693 28.1328 38.1693 28.4276 38.4638C28.7222 38.7585 28.7222 39.2362 28.4276 39.531L27.6734 40.2852C27.526 40.4326 27.3328 40.5062 27.1398 40.5062Z" fill="#257671"/>
<path d="M24.4588 31.4658H23.3922C22.9754 31.4658 22.6377 31.128 22.6377 30.7113C22.6377 30.2946 22.9755 29.9568 23.3922 29.9568H24.4589C24.8757 29.9568 25.2134 30.2946 25.2134 30.7113C25.2134 31.128 24.8756 31.4658 24.4588 31.4658Z" fill="#257671"/>
<path d="M27.894 23.1814C27.7009 23.1814 27.5078 23.1077 27.3605 22.9604L26.6063 22.2063C26.3116 21.9117 26.3116 21.434 26.6062 21.1392C26.9009 20.8445 27.3787 20.8446 27.6733 21.1391L28.4275 21.8932C28.7222 22.1879 28.7222 22.6656 28.4276 22.9603C28.2802 23.1077 28.0871 23.1814 27.894 23.1814Z" fill="#257671"/>
<path d="M36.1789 31.7771C35.9859 31.7771 35.796 31.703 35.6523 31.5631L32.9986 28.979C32.7001 28.6883 32.6937 28.2106 32.9845 27.912C33.2751 27.6135 33.7528 27.607 34.0515 27.8979L35.4242 29.2346V23.8819C35.4242 23.4651 35.762 23.1274 36.1787 23.1274C36.5955 23.1274 36.9332 23.4652 36.9332 23.8819V31.0225C36.9332 31.3259 36.7516 31.5996 36.4721 31.7177C36.3773 31.7576 36.2777 31.7771 36.1789 31.7771Z" fill="#1A6C67"/>
<path d="M52.4916 58.9648C59.6759 58.9648 65.5 53.1407 65.5 45.9564C65.5 38.7721 59.6759 32.948 52.4916 32.948C45.3072 32.948 39.4832 38.7721 39.4832 45.9564C39.4832 53.1407 45.3072 58.9648 52.4916 58.9648Z" fill="#CC2828"/>
<path d="M52.2532 48.7569C51.4198 48.7569 50.7441 48.0812 50.7441 47.2478V38.2383C50.7441 37.4049 51.4198 36.7292 52.2532 36.7292C53.0866 36.7292 53.7623 37.4049 53.7623 38.2383V47.2479C53.7622 48.0813 53.0866 48.7569 52.2532 48.7569Z" fill="#F4FBFF"/>
<path d="M52.2532 54.5919C51.4198 54.5919 50.7441 53.9163 50.7441 53.0829V52.1216C50.7441 51.2882 51.4198 50.6125 52.2532 50.6125C53.0866 50.6125 53.7623 51.2882 53.7623 52.1216V53.0829C53.7622 53.9163 53.0866 54.5919 52.2532 54.5919Z" fill="#F4FBFF"/>
<path d="M52.2535 36.7295C51.9783 36.7295 51.7211 36.8044 51.499 36.933C51.9496 37.194 52.2535 37.6803 52.2535 38.2386V47.2481C52.2535 47.8063 51.9496 48.2927 51.499 48.5537C51.7212 48.6823 51.9783 48.7572 52.2535 48.7572C53.0869 48.7572 53.7626 48.0815 53.7626 47.2481V38.2386C53.7625 37.4052 53.0869 36.7295 52.2535 36.7295Z" fill="white"/>
<path d="M52.2535 50.6125C51.9783 50.6125 51.7211 50.6875 51.499 50.8161C51.9496 51.0771 52.2535 51.5633 52.2535 52.1216V53.0829C52.2535 53.6411 51.9496 54.1274 51.499 54.3884C51.7212 54.517 51.9783 54.5919 52.2535 54.5919C53.0869 54.5919 53.7626 53.9163 53.7626 53.0829V52.1216C53.7625 51.2882 53.0869 50.6125 52.2535 50.6125Z" fill="white"/>
</g>
</g>
<defs>
<clipPath id="clip0_3476_22963">
<rect width="81" height="70" fill="white"/>
</clipPath>
<clipPath id="clip1_3476_22963">
<rect width="50" height="50" fill="white" transform="translate(15.5 9.5)"/>
</clipPath>
</defs>
</svg>
