<svg width="142" height="70" viewBox="0 0 142 70" fill="none" xmlns="http://www.w3.org/2000/svg">
<path d="M137.233 60.4838C132.811 62.6136 128.123 64.1573 123.291 65.0754C120.216 65.7222 116.774 66.303 113.09 66.8084C109.15 67.371 105.173 67.6612 101.19 67.6769C99.0447 67.6776 96.9015 67.5382 94.7737 67.2597C92.5614 66.9967 90.3765 66.5368 88.2453 65.8854C86.054 65.2429 83.9458 64.3452 81.9647 63.2112C79.9472 62.094 78.0906 60.7102 76.4462 59.098L76.1813 58.8239C76.2966 58.764 76.4305 58.7219 76.5567 58.6654C81.316 56.5072 85.2333 52.8693 87.7193 48.299C88.9549 45.9674 89.6984 43.4081 89.9045 40.7771C90.1223 38.0212 89.6247 35.2526 88.4594 32.7354C87.8855 31.3899 87.0997 30.1428 86.1317 29.0409C85.0559 27.7983 83.7103 26.8141 82.1969 26.1632C80.7118 25.568 79.1184 25.29 77.5209 25.3476C75.9234 25.4053 74.3578 25.7971 72.9264 26.4976C70.334 27.7679 68.2762 29.9024 67.1109 32.5299C66.0298 34.9299 65.4366 37.5202 65.3653 40.1528C65.2725 42.7408 65.5826 45.3294 66.2847 47.8272C67.1679 50.9427 68.5785 53.8885 70.456 56.5382C69.738 56.6952 69.01 56.8045 68.2769 56.8655C63.9544 57.2564 59.5938 56.6879 55.5105 55.2012C51.6936 53.8406 48.1033 51.9152 44.8615 49.4904C42.0197 47.3875 39.4452 44.9492 37.1952 42.2297C35.3364 39.8752 33.6944 37.36 32.289 34.7149C30.0475 30.599 28.266 26.2537 26.9764 21.7568C26.0871 18.7472 25.4285 15.6761 25.0064 12.5698C24.6843 10.0747 24.5378 8.25685 24.4587 6.8432C24.3692 5.61791 24.3438 4.80769 24.2969 4.18243L24.8748 4.92516C26.5221 7.04267 28.0477 8.93068 29.3728 10.4928C32.0264 13.6062 33.8578 15.4817 34.2486 15.1963C34.6394 14.9108 33.5115 12.7155 31.3647 9.293C30.2948 7.57081 28.9743 5.56706 27.4635 3.36033L26.8908 2.52341C26.6482 2.16061 26.3747 1.81905 26.0734 1.50253C25.8766 1.3025 25.6628 1.11973 25.4344 0.956293C25.1442 0.747847 24.8265 0.580385 24.4903 0.458747C23.7979 0.208225 23.0441 0.183254 22.3386 0.387465C21.4573 0.703222 20.6447 1.1814 19.9433 1.79696L18.2012 3.08656C8.67229 10.4173 1.42047 16.9124 2.05177 17.5999C2.68307 18.2874 10.9258 12.9151 20.4657 5.58784L21.7119 4.61083C21.5927 5.27218 21.5177 5.94083 21.4872 6.61241C21.3547 8.61249 21.3754 10.6204 21.5492 12.6189C21.8009 15.9111 22.3573 19.1747 23.2112 22.3686C24.4486 27.1592 26.2491 31.7912 28.5755 36.1689C30.0949 39.0558 31.8815 41.7969 33.9122 44.3567C36.3812 47.3758 39.2197 50.0779 42.3614 52.4C45.9733 55.1037 49.9788 57.2434 54.238 58.7446C58.9674 60.4484 64.0162 61.0794 69.0128 60.5912C70.4532 60.4564 71.8755 60.1772 73.2578 59.7576C73.6124 60.1315 73.967 60.5053 74.3428 60.8498C76.2119 62.6306 78.3127 64.1548 80.5886 65.3811C82.7905 66.5789 85.1242 67.5186 87.5425 68.1812C89.844 68.8348 92.1996 69.2797 94.5801 69.5104C96.8066 69.7583 99.0464 69.8597 101.285 69.814C105.362 69.7167 109.425 69.3209 113.441 68.6299C117.183 68.0149 120.618 67.3245 123.747 66.5585C128.632 65.4494 133.321 63.6291 137.663 61.1567C138.805 60.485 139.893 59.7269 140.918 58.8891C141.597 58.2983 141.918 58.0032 141.883 57.9206C141.849 57.8379 140.263 58.9366 137.211 60.4769L137.233 60.4838ZM74.6049 55.1599C74.2515 55.3252 73.8829 55.4619 73.5142 55.5986C71.6695 53.0541 70.3119 50.1957 69.5095 47.167C68.9289 44.9538 68.692 42.6672 68.807 40.3863C68.8988 38.1469 69.4353 35.9497 70.3855 33.9208C71.2779 31.9878 72.8229 30.4278 74.7542 29.5095C75.6972 29.0473 76.7286 28.788 77.7813 28.7486C78.834 28.7091 79.8844 28.8904 80.8639 29.2806C82.7598 30.2593 84.2244 31.902 84.9723 33.8887C85.8709 35.8963 86.2378 38.0965 86.0378 40.2795C85.8226 42.4447 85.1694 44.5424 84.1173 46.447C83.0723 48.3657 81.7164 50.0996 80.1037 51.5795C78.4963 53.0741 76.6446 54.287 74.6269 55.1667" fill="white"/>
</svg>
