<svg width="70" height="70" viewBox="0 0 70 70" fill="none" xmlns="http://www.w3.org/2000/svg">
<g clip-path="url(#clip0_3130_1799)">
<rect width="70" height="70" rx="11.413" fill="url(#paint0_linear_3130_1799)"/>
<path fill-rule="evenodd" clip-rule="evenodd" d="M30.8924 9.20743C37.9893 9.20743 44.3549 12.3316 48.6932 17.2781H44.1592V19.4871C40.7537 16.1121 36.0662 14.0273 30.8924 14.0273C20.4814 14.0273 12.0416 22.4672 12.0416 32.8781C12.0416 43.2891 20.4814 51.7289 30.8924 51.7289C33.5924 51.7289 36.1611 51.1606 38.4826 50.1375L41.8658 53.8547C38.5857 55.575 34.8533 56.5488 30.8924 56.5488C17.8201 56.5488 7.22168 45.9516 7.22168 32.8781C7.22168 19.8047 17.8201 9.20743 30.8924 9.20743ZM37.3213 28.207C37.3213 25.1262 34.4209 23.1281 31.5861 22.8738V20.4035C31.5861 20.0203 31.2756 19.7086 30.8912 19.7086C30.508 19.7086 30.1963 20.0191 30.1963 20.4035V22.8738C27.3627 23.1281 24.4611 25.1262 24.4611 28.207C24.4611 32.3613 27.6123 32.9602 30.7623 33.559C33.3463 34.05 35.9303 34.5398 35.9303 37.548C35.9303 40.1063 33.1658 41.5242 30.89 41.5242C29.4686 41.5242 28.19 41.0613 27.2713 40.3137C26.3924 39.5988 25.8498 38.6203 25.8498 37.548C25.8498 37.1648 25.5393 36.8531 25.1549 36.8531C24.7705 36.8531 24.46 37.1637 24.46 37.548C24.46 39.0563 25.2006 40.4133 26.3971 41.3871C27.399 42.2027 28.7244 42.7488 30.1939 42.8813V45.3516C30.1939 45.7348 30.5045 46.0465 30.8889 46.0465C31.2721 46.0465 31.5838 45.7359 31.5838 45.3516V42.8813C34.4174 42.627 37.3189 40.6289 37.3189 37.548C37.3189 33.3938 34.1678 32.7949 31.0178 32.1961C28.4338 31.7051 25.8498 31.2152 25.8498 28.207C25.8498 25.6488 28.6143 24.2309 30.89 24.2309C33.1658 24.2309 35.9303 25.6488 35.9303 28.207C35.9303 28.5902 36.2408 28.902 36.6252 28.902C37.0107 28.902 37.3213 28.5902 37.3213 28.207ZM44.1592 46.268V49.4344H39.9111C41.4744 48.5801 42.9041 47.5125 44.1592 46.268ZM30.8924 15.416C36.0135 15.416 40.8346 17.6414 44.1592 21.525V44.2301C40.8322 48.1137 36.0146 50.3391 30.8924 50.3391C21.249 50.3391 13.4314 42.5215 13.4314 32.8781C13.4303 23.2336 21.249 15.416 30.8924 15.416Z" fill="white"/>
<path fill-rule="evenodd" clip-rule="evenodd" d="M62.7777 50.8231H57.2145V18.6668H46.5477V50.8231H40.9844L51.8805 62.7926L62.7777 50.8231Z" fill="url(#paint1_linear_3130_1799)"/>
</g>
<defs>
<linearGradient id="paint0_linear_3130_1799" x1="22.05" y1="18.2007" x2="72.45" y2="66.1507" gradientUnits="userSpaceOnUse">
<stop stop-color="#7FB4E9"/>
<stop offset="1" stop-color="#3346A9"/>
</linearGradient>
<linearGradient id="paint1_linear_3130_1799" x1="51" y1="7" x2="51" y2="63" gradientUnits="userSpaceOnUse">
<stop stop-color="white" stop-opacity="0.19"/>
<stop offset="1" stop-color="white"/>
</linearGradient>
<clipPath id="clip0_3130_1799">
<rect width="70" height="70" fill="white"/>
</clipPath>
</defs>
</svg>
